<svg width="46" height="1245" viewBox="0 0 46 1245" fill="none" xmlns="http://www.w3.org/2000/svg">
<path d="M45 1V1C30.6204 5.3764 19.3569 16.6145 14.9481 30.9841L5.12451 63.0016C-1.39727 84.2578 0.111029 107.169 9.3632 127.386V127.386C17.5643 145.307 19.7087 165.411 15.4725 184.658L8.70901 215.389C5.01359 232.179 5.70941 249.639 10.7293 266.082L14.2027 277.459C19.3114 294.193 19.9402 311.975 16.0262 329.028L13.1034 341.762C10.3368 353.816 9.83019 366.279 11.6092 378.517L19.3921 432.059C21.1166 443.923 20.6938 456 18.1438 467.714L9.99008 505.171C6.72112 520.188 6.95741 535.757 10.6806 550.667L15.8772 571.479C19.8959 587.573 19.8477 604.414 15.7371 620.485L8.42399 649.077C4.96518 662.599 6.33963 676.905 12.3098 689.522V689.522C18.5539 702.717 19.7617 717.74 15.7061 731.763L8.29494 757.39C2.71579 776.682 3.07451 797.207 9.32437 816.292L12.0405 824.587C18.5184 844.368 18.662 865.678 12.4514 885.545L11.0077 890.163C4.93443 909.591 4.93443 930.409 11.0077 949.837L12.7687 955.47C18.7472 974.595 18.0925 995.178 10.9108 1013.88V1013.88C3.67426 1032.73 3.06626 1053.48 9.18672 1072.72L13.67 1086.81C19.0454 1103.71 18.2006 1121.98 11.288 1138.3V1138.3C5.05003 1153.04 3.73583 1169.4 7.54088 1184.94L22 1244" stroke="black" stroke-dasharray="4 4"/>
</svg>
