<svg width="63" height="60" viewBox="0 0 63 60" fill="none" xmlns="http://www.w3.org/2000/svg">
<path fill-rule="evenodd" clip-rule="evenodd" d="M24.5777 8.20603L24.5776 8.20612C24.2573 8.76523 23.932 9.33278 23.6079 9.89803C21.5388 13.6421 19.4697 16.7458 19.0264 16.8936C18.5337 17.0414 14.6418 17.8296 10.3065 18.6671C9.59017 18.8069 8.92834 18.9353 8.31668 19.0539C2.57075 20.1685 1.25227 20.4242 0.746555 21.2058C0.595954 21.4386 0.51743 21.718 0.415522 22.0806C0.382503 22.1981 0.347028 22.3243 0.305851 22.4605C-0.186794 24.1355 -0.13753 24.4311 0.84776 25.5641C1.25117 25.9986 2.5537 27.4103 4.20131 29.1961L4.20328 29.1982L4.20591 29.2011C5.17286 30.2491 6.2584 31.4257 7.35067 32.609L12.7205 38.4714L11.5874 48.078C10.9962 53.3493 10.5529 57.7338 10.6514 57.7831C10.7123 57.844 11.0178 58.0555 11.4401 58.3477L11.4405 58.3479C11.7013 58.5285 12.0067 58.7398 12.3264 58.9654L13.8043 60L22.5241 56.0096L31.2439 52.0192L40.013 56.0096L48.7328 59.9507L50.2108 58.9162C50.422 58.771 50.6296 58.6293 50.8224 58.4978C51.349 58.1386 51.7644 57.8552 51.8365 57.7831C51.935 57.7338 51.4916 53.3493 50.9005 48.078L49.7674 38.4714L55.1372 32.609C56.2302 31.4249 57.3165 30.2475 58.2839 29.199C59.9328 27.4118 61.2365 25.9988 61.6401 25.5641C62.6254 24.4311 62.6747 24.1355 62.182 22.4605C61.8372 21.2781 61.246 20.5392 60.6056 20.3914C60.0144 20.2436 55.8269 19.3568 51.2946 18.4701C46.713 17.534 42.8704 16.6473 42.6733 16.4995C42.5255 16.3024 40.3579 12.6076 37.8946 8.17378L33.3623 0.192933L31.3425 0.0451396C29.5689 -0.102654 29.2734 0.0451396 28.4359 1.52307C27.9769 2.27417 26.3515 5.11052 24.5777 8.20603ZM35.9241 12.2135L40.3086 20.0465L47.0086 21.3767C48.3884 21.6563 49.8246 21.9431 51.1491 22.2075L51.1493 22.2076C53.3241 22.6417 55.1973 23.0157 56.024 23.1994L58.3394 23.6921L56.024 26.2538C55.2493 27.0859 53.99 28.4695 52.6451 29.947L52.644 29.9482L52.6433 29.949C51.6796 31.0078 50.672 32.1147 49.7674 33.1016L45.9248 37.3876L46.713 44.3832C47.1564 48.2751 47.649 52.364 47.7968 53.4971L48.0924 55.6155L41.0476 52.364C40.1731 51.9613 39.3829 51.5923 38.6638 51.2564C34.8332 49.4672 33.0189 48.6197 31.2222 48.6555C29.6055 48.6876 28.0031 49.4347 24.9588 50.8541C24.3283 51.1481 23.636 51.4709 22.869 51.8221C18.3859 53.8419 14.6911 55.4184 14.5926 55.3691C14.5433 55.3199 14.9374 51.2309 15.5286 46.3045L16.5631 37.3876L12.7205 33.1016C11.7649 32.0592 10.6944 30.8827 9.68635 29.7747L9.68547 29.7738C8.40715 28.3688 7.22922 27.0742 6.51318 26.3031L4.19774 23.7414L13.1639 21.8693L22.1793 20.0465L26.5638 12.2135C29.027 7.87819 31.0961 4.38041 31.2439 4.38041C31.3917 4.38041 33.4608 7.92745 35.9241 12.2135ZM27.155 20.8348C16.8094 24.6774 16.1197 38.9641 26.0712 43.595C29.3719 45.1714 33.116 45.1714 36.4167 43.595C47.8953 38.1759 44.7424 21.1304 32.0814 20.3421C30.2094 20.1943 28.3373 20.3914 27.155 20.8348ZM35.2343 24.8745C37.1064 25.8105 39.0277 28.2737 39.6189 30.4906C40.752 34.6288 37.7468 39.5553 33.3623 40.8361C27.4998 42.6097 21.2432 36.4516 22.869 30.4906C24.3469 25.0222 30.2094 22.362 35.2343 24.8745ZM29.1748 31.131C30.4064 32.2641 30.8498 32.2149 32.4755 30.4906C34.1505 28.7171 34.2491 28.7171 35.5792 30.1458L36.663 31.2788L33.5594 34.3332L30.4557 37.3876L28.1403 35.0229L25.8248 32.6582L27.0564 31.4759C28.1895 30.3921 28.3373 30.3921 29.1748 31.131Z" fill="#E22E2E"/>
</svg>
