<svg width="60" height="60" viewBox="0 0 60 60" fill="none" xmlns="http://www.w3.org/2000/svg">
<path d="M12.2361 0.540977C7.95344 1.43515 3.29433 3.8353 1.45892 6.09427L0 7.92968V26.425V44.9202L1.45892 46.7557C4.65912 50.7088 13.0361 53.3443 21.1307 52.8737L25.3192 52.6384L26.5899 54.1444C28.4724 56.2621 32.4726 58.5211 36.0023 59.4153C49.8384 62.9449 62.8745 49.9088 59.3449 36.0726C57.2271 27.7898 50.4032 22.0012 42.2615 21.5776L38.873 21.3894L38.7319 14.7066C38.5907 8.58854 38.4965 7.92968 37.4612 6.47076C35.9552 4.40005 32.7079 2.37638 28.943 1.19984C24.8957 -0.0708275 16.754 -0.400257 12.2361 0.540977ZM26.8252 4.25886C31.8608 5.57659 35.061 7.97674 35.061 10.471C35.061 12.4006 32.8962 14.3771 29.0842 15.8831C26.637 16.8714 25.6016 17.0126 19.2953 17.0126C12.9891 17.0126 11.9537 16.8714 9.50648 15.8831C8.0005 15.2713 6.02391 14.1418 5.12973 13.3888C1.45892 10.1416 4.23556 6.32958 11.6243 4.35298C14.8245 3.45881 23.7662 3.41175 26.8252 4.25886ZM12.942 20.354C19.9071 21.6717 28.9901 20.5422 33.5551 17.7185L35.061 16.7773V19.3186V21.907L32.5197 23.0365C31.1549 23.6954 29.0842 25.0131 28.0018 26.0014L25.9781 27.8368H19.1071C13.0361 27.7898 11.9066 27.6956 9.50648 26.7073C8.0005 26.0955 6.02391 24.966 5.12973 24.2131C3.62376 22.8953 3.52963 22.613 3.52963 19.8834V16.9185L6.25922 18.2833C7.71813 18.9892 10.7301 19.9775 12.942 20.354ZM47.4383 26.3779C50.3091 27.7427 53.2269 30.6605 54.9211 33.8137C55.8153 35.555 56.0035 36.5432 56.0035 40.5435C56.0035 44.5908 55.8623 45.5791 54.874 47.6028C53.3681 50.5677 50.4973 53.4384 47.5324 54.9444C45.5088 55.9327 44.5205 56.0739 40.4731 56.0739C35.1081 56.0739 33.2727 55.368 29.6019 51.9795C20.9896 44.0261 24.5663 29.1545 35.9552 25.4837C39.1554 24.4484 44.144 24.8719 47.4383 26.3779ZM12.6126 31.1311C14.6362 31.5076 17.8364 31.8371 19.7189 31.8371H23.1544L22.3073 34.2843C21.8367 35.6491 21.4602 37.2492 21.4131 37.8139C21.4131 38.8022 21.1778 38.8963 19.2012 38.8963C13.8362 38.8963 7.43576 37.0139 4.94149 34.6608C3.67082 33.4842 3.52963 33.0607 3.52963 30.5664V27.7427L6.25922 29.1075C7.71813 29.8134 10.5889 30.7546 12.6126 31.1311ZM6.4004 39.7435C9.69473 41.2965 13.742 42.1907 17.507 42.1907C19.9071 42.1907 21.0366 42.3789 21.1307 42.7554C21.1778 43.0848 21.6955 44.732 22.2132 46.3792L23.2015 49.3441L17.6952 49.1558C11.5301 48.8734 7.90638 47.791 5.12973 45.3909C3.62376 44.0731 3.52963 43.7908 3.52963 41.1553C3.52963 39.6023 3.67082 38.4257 3.90613 38.5198C4.09438 38.614 5.22386 39.1787 6.4004 39.7435Z" fill="#E22E2E"/>
</svg>
