<svg width="60" height="60" viewBox="0 0 60 60" fill="none" xmlns="http://www.w3.org/2000/svg">
<path fill-rule="evenodd" clip-rule="evenodd" d="M14.9469 8.78355C7.12747 13.6037 0.5399 17.9419 0.218555 18.3703C-0.424135 19.3879 0.432785 20.9947 1.71816 21.2624C2.20018 21.3696 8.73419 17.6741 16.2322 13.0682C23.7838 8.46221 30.1036 4.76674 30.3179 4.92741C30.5321 5.03453 36.6912 8.78355 44.0286 13.2824C51.3124 17.7812 57.6857 21.3696 58.1677 21.2624C59.4531 20.9947 60.31 19.3879 59.6674 18.3703C58.9711 17.2456 31.0141 -0.0534334 29.943 0.000124099C29.5145 0.000124099 22.7663 3.96338 14.9469 8.78355ZM4.87805 22.0122C3.96757 22.9227 3.96757 58.3778 4.87805 59.2882C5.89564 60.3058 54.2045 60.1987 55.0614 59.1811C55.4899 58.6991 55.6505 53.2898 55.5434 40.3825C55.3828 23.8332 55.3292 22.2265 54.4723 21.6909C53.776 21.2624 53.2405 21.2624 52.5978 21.6909C51.7408 22.2265 51.6337 23.7796 51.4731 38.99L51.3659 55.6463H29.943H8.51996V39.1506C8.51996 22.1729 8.41285 21.3695 6.37766 21.3695C5.89564 21.3695 5.25295 21.6373 4.87805 22.0122ZM15.2147 28.5998L22.1771 25.0115C26.0333 23.0298 29.5145 21.4231 29.943 21.4231C30.3714 21.4231 33.9062 23.0298 37.7088 25.0115L44.6713 28.5998V37.4368V46.2738L37.3339 50.0228L29.943 53.7718L22.6056 50.0228L15.2147 46.2738V37.4368V28.5998ZM37.441 29.9388C37.441 29.7781 35.8878 28.8676 33.9598 27.9036C32.0317 26.9395 30.1572 26.1897 29.7823 26.2433C28.9254 26.2433 22.4449 29.5638 22.4449 29.9388C22.4449 30.0994 24.1587 31.0635 26.1939 32.0811L29.943 33.902L33.692 32.0811C35.7807 31.0635 37.441 30.0994 37.441 29.9388ZM27.8007 37.651L23.7838 35.6694C21.5344 34.5983 19.6064 33.6878 19.4993 33.6878C19.3386 33.6878 19.2315 35.9372 19.2315 38.6686V43.6495L23.2483 45.6311C25.4977 46.7022 27.4258 47.6127 27.5329 47.6127C27.6935 47.6127 27.8007 45.3633 27.8007 42.6319V37.651ZM40.6545 43.6495V38.6686C40.6545 35.9372 40.4938 33.6878 40.2795 33.7413C40.0118 33.7413 38.0837 34.6518 35.995 35.723L32.0853 37.651V42.6319C32.0853 45.3633 32.1924 47.6127 32.353 47.6127C32.4602 47.6127 34.3882 46.7022 36.6376 45.6311L40.6545 43.6495Z" fill="#E22E2E"/>
</svg>
