<svg width="61" height="60" viewBox="0 0 61 60" fill="none" xmlns="http://www.w3.org/2000/svg">
<path fill-rule="evenodd" clip-rule="evenodd" d="M18.5715 0.742952C9.39312 2.94362 2.03967 11.0485 0.429422 20.6563C-2.14697 36.222 10.7887 50.2848 26.5691 49.104C30.4873 48.8356 35.0497 47.3327 37.6798 45.4004C39.29 44.3269 40.4708 44.4343 39.29 45.6151C38.9143 45.9908 38.6459 46.6349 38.6459 47.118C38.6459 48.0305 48.9515 58.4434 50.8301 59.4096C55.8218 61.9323 62.0481 55.706 59.5254 50.7142C58.5593 48.8356 48.1463 38.53 47.2339 38.53C46.7508 38.53 46.1067 38.7984 45.731 39.1741C44.5501 40.355 44.4428 39.1205 45.6236 37.4565C46.2677 36.5441 47.2875 34.4508 47.878 32.7868C54.3726 14.2153 37.7871 -3.92676 18.5715 0.742952ZM32.4733 5.78839C34.835 6.70086 36.5526 7.93538 38.968 10.2971C43.3156 14.6447 44.7648 18.241 44.7648 24.5746C44.7648 30.9082 43.3156 34.5044 38.968 38.8521C34.6203 43.1998 31.0241 44.649 24.6904 44.649C18.4105 44.649 14.9216 43.2534 10.4666 38.8521C6.01161 34.4508 4.61606 31.0156 4.61606 24.3062C4.61606 19.9585 4.77708 19.0998 6.33365 15.9329C8.96372 10.4044 14.1165 6.21779 20.1281 4.66122C22.8655 3.90977 29.0381 4.50019 32.4733 5.78839ZM51.6889 48.1378C55.9829 52.5392 56.6806 54.1494 54.7484 55.1693C53.0844 56.0817 52.1183 55.545 47.7706 51.1436L43.7987 47.118L45.3553 45.5078C46.2141 44.649 47.0728 43.8975 47.2339 43.8975C47.4486 43.8975 49.4345 45.7761 51.6889 48.1378ZM13.5261 13.4102C12.6136 14.3227 12.6136 34.8265 13.5261 35.739C14.4385 36.6514 34.9423 36.6514 35.8548 35.739C36.7673 34.8265 36.7673 14.3227 35.8548 13.4102C34.9423 12.4978 14.4385 12.4978 13.5261 13.4102ZM32.2049 24.5746V32.0891H24.6904H17.176V24.5746V17.0601H24.6904H32.2049V24.5746ZM22.2214 23.7158C23.3486 23.9842 23.8316 23.6621 25.2272 21.6225C26.1396 20.2806 27.3205 19.2071 27.8036 19.2071C28.9307 19.2071 30.0579 20.227 30.0579 21.1931C30.0579 22.535 24.6904 29.9421 23.7779 29.9421C22.5971 29.9421 19.3229 26.7753 19.3229 25.5944C19.3229 24.2526 20.7185 23.3401 22.2214 23.7158ZM2.79109 49.9628C1.23452 51.5194 0 53.1296 0 53.6127C0 54.6325 5.42116 60 6.49466 60C7.51448 60 8.58797 58.9265 8.58797 57.9067C8.58797 57.4773 7.83653 56.2964 6.87038 55.3303L5.15278 53.559L6.87038 51.7878C8.69532 49.9091 8.9637 48.782 7.94387 47.7621C6.76303 46.5813 5.63586 47.0644 2.79109 49.9628ZM12.4525 51.7878C10.6276 49.9091 10.3592 48.782 11.379 47.7621C11.7548 47.3864 12.3989 47.118 12.8283 47.118C13.9018 47.118 19.3229 52.4855 19.3229 53.5053C19.3229 54.5788 13.9554 60 12.8819 60C11.8084 60 10.7349 58.9802 10.7349 57.9067C10.7349 57.4773 11.4864 56.2964 12.4525 55.3303L14.1701 53.559L12.4525 51.7878Z" fill="#E22E2E"/>
</svg>
